<?xml version="1.0" encoding="utf-8"?>
<!-- Generator: Adobe Illustrator 21.1.0, SVG Export Plug-In . SVG Version: 6.00 Build 0)  -->
<svg version="1.1" id="Camada_1" xmlns="http://www.w3.org/2000/svg" xmlns:xlink="http://www.w3.org/1999/xlink" x="0px" y="0px"
	 viewBox="0 0 134 100" style="enable-background:new 0 0 134 100;" xml:space="preserve">
<style type="text/css">
	.st0{fill:url(#SVGID_1_);}
	.st1{fill:#FFFFFF;}
</style>
<g>
	
		<linearGradient id="SVGID_1_" gradientUnits="userSpaceOnUse" x1="-99.8267" y1="80.7468" x2="-99.2874" y2="80.7468" gradientTransform="matrix(-447.2577 2.6392 2.6392 447.2577 -44741.2383 -35801.4805)">
		<stop  offset="0" style="stop-color:#222357"/>
		<stop  offset="1" style="stop-color:#254AA5"/>
	</linearGradient>
	<path class="st0" d="M9,99.5H125c4.4,0,8-3.6,8-8V68.1V33.5v-9.8V8.5c0-4.4-3.6-8-8-8H76.6H52.7H9c-4.4,0-8,3.6-8,8v6.1v19v34.6
		v23.4C1.1,95.9,4.6,99.5,9,99.5z"/>
	<path class="st1" d="M68.9,43.7c-0.1,4.9,4.3,7.6,7.6,9.2c3.4,1.7,4.5,2.7,4.5,4.2c0,2.3-2.7,3.3-5.2,3.3c-4.4,0.1-6.9-1.2-8.9-2.1
		l-1.6,7.4c2,0.9,5.8,1.8,9.7,1.8c9.2,0,15.1-4.5,15.2-11.5c0-8.9-12.3-9.4-12.2-13.4c0-1.2,1.2-2.5,3.7-2.8
		c1.2-0.2,4.7-0.3,8.6,1.5l1.5-7.1c-2.1-0.8-4.8-1.5-8.2-1.5C75,32.6,68.9,37.2,68.9,43.7 M106.4,33.2c-1.7,0-3.1,1-3.7,2.5
		L89.7,66.9h9.1l1.8-5h11.2l1.1,5h8.1l-7-33.7H106.4 M107.7,42.3l2.6,12.6h-7.2L107.7,42.3 M57.8,33.2l-7.2,33.7h8.7l7.2-33.7H57.8
		 M44.9,33.2l-9.1,22.9l-3.7-19.5c-0.4-2.2-2.1-3.4-4-3.4H13.3l-0.2,1c3,0.7,6.5,1.7,8.6,2.9c1.3,0.7,1.6,1.3,2.1,3l6.9,26.9h9.2
		L54,33.2L44.9,33.2"/>
</g>
</svg>
