<?xml version="1.0" encoding="utf-8"?>
<!-- Generator: Adobe Illustrator 21.1.0, SVG Export Plug-In . SVG Version: 6.00 Build 0)  -->
<svg version="1.1" id="Camada_1" xmlns="http://www.w3.org/2000/svg" xmlns:xlink="http://www.w3.org/1999/xlink" x="0px" y="0px"
	 viewBox="0 0 134 100" style="enable-background:new 0 0 134 100;" xml:space="preserve">
<style type="text/css">
	.st0{fill:#EFEEEA;}
	.st1{fill:#040706;}
	.st2{fill:#D4642B;}
	.st3{fill:#C42028;}
	.st4{fill:#E29C2F;}
</style>
<g>
	<path class="st0" d="M125,0.5H76.6H52.7H9c-4.4,0-8,3.6-8,8v6.1v19v34.6v23.4c0,4.4,3.6,8,8,8H125c4.4,0,8-3.6,8-8V68.1V33.5v-9.8
		V8.5C132.9,4.1,129.4,0.5,125,0.5z"/>
	<g id="XMLID_25_">
		<path id="XMLID_34_" class="st1" d="M33.8,90.1v-5.4c0-2-1.3-3.4-3.4-3.4c-1.1,0-2.2,0.3-3,1.5c-0.6-0.9-1.5-1.5-2.8-1.5
			c-0.9,0-1.8,0.3-2.5,1.3v-1.1h-1.9v8.6h1.9v-4.7c0-1.5,0.8-2.3,2.1-2.3c1.2,0,1.9,0.8,1.9,2.3v4.8H28v-4.7c0-1.5,0.9-2.3,2.1-2.3
			c1.3,0,1.9,0.8,1.9,2.3v4.8H33.8z M61.6,81.5h-3v-2.6h-1.9v2.6H55v1.7h1.7v3.9c0,2,0.8,3.2,3,3.2c0.8,0,1.7-0.2,2.3-0.7L61.5,88
			c-0.6,0.3-1.2,0.5-1.6,0.5c-0.9,0-1.2-0.6-1.2-1.4v-3.9h3V81.5z M77.5,81.3c-1.1,0-1.8,0.5-2.3,1.3v-1h-1.8v8.6h1.9v-4.8
			c0-1.4,0.6-2.2,1.8-2.2c0.4,0,0.8,0.1,1.2,0.2l0.6-1.8C78.4,81.4,77.9,81.3,77.5,81.3 M53.5,82.2c-0.9-0.6-2.1-0.9-3.5-0.9
			c-2.2,0-3.6,1-3.6,2.7c0,1.4,1,2.3,2.9,2.5l0.9,0.1c1,0.1,1.5,0.4,1.5,0.9c0,0.7-0.7,1-1.9,1c-1.3,0-2.2-0.4-2.8-0.9l-0.9,1.4
			c1,0.8,2.3,1.1,3.7,1.1c2.5,0,3.9-1.2,3.9-2.8c0-1.5-1.1-2.3-3-2.6l-0.9-0.1c-0.8-0.1-1.4-0.3-1.4-0.8c0-0.6,0.6-1,1.6-1
			c1.1,0,2.1,0.4,2.7,0.7L53.5,82.2z M103.4,81.3c-1.1,0-1.8,0.5-2.3,1.3v-1h-1.8v8.6h1.9v-4.8c0-1.4,0.6-2.2,1.8-2.2
			c0.4,0,0.8,0.1,1.2,0.2l0.6-1.8C104.3,81.4,103.7,81.3,103.4,81.3 M79.4,85.8c0,2.6,1.8,4.5,4.6,4.5c1.3,0,2.1-0.3,3.1-1l-0.9-1.5
			c-0.7,0.5-1.4,0.8-2.2,0.8c-1.5,0-2.6-1.1-2.6-2.7c0-1.6,1.1-2.7,2.6-2.7c0.8,0,1.5,0.3,2.2,0.8l0.9-1.5c-0.9-0.7-1.8-1-3.1-1
			C81.2,81.3,79.4,83.2,79.4,85.8 M96.8,85.8v-4.3H95v1c-0.6-0.8-1.5-1.3-2.7-1.3c-2.4,0-4.3,1.9-4.3,4.5c0,2.6,1.9,4.5,4.3,4.5
			c1.2,0,2.1-0.5,2.7-1.3v1h1.9V85.8z M89.9,85.8c0-1.5,1-2.7,2.6-2.7c1.5,0,2.6,1.2,2.6,2.7c0,1.6-1,2.7-2.6,2.7
			C90.9,88.5,89.9,87.3,89.9,85.8 M67.4,81.3c-2.5,0-4.3,1.8-4.3,4.5c0,2.7,1.8,4.5,4.4,4.5c1.3,0,2.5-0.3,3.5-1.2l-0.9-1.4
			c-0.7,0.6-1.6,0.9-2.5,0.9c-1.2,0-2.3-0.6-2.6-2.1h6.4c0-0.2,0-0.5,0-0.7C71.5,83.1,69.8,81.3,67.4,81.3 M67.4,83
			c1.2,0,2,0.8,2.2,2.1h-4.4C65.3,83.8,66.1,83,67.4,83 M114.1,85.8v-7.7h-1.9v4.5c-0.6-0.8-1.5-1.3-2.7-1.3c-2.4,0-4.3,1.9-4.3,4.5
			c0,2.6,1.9,4.5,4.3,4.5c1.2,0,2.1-0.5,2.7-1.3v1h1.9V85.8z M107.2,85.8c0-1.5,1-2.7,2.6-2.7c1.5,0,2.6,1.2,2.6,2.7
			c0,1.6-1,2.7-2.6,2.7C108.1,88.5,107.2,87.3,107.2,85.8 M44.3,85.8v-4.3h-1.9v1c-0.6-0.8-1.5-1.3-2.7-1.3c-2.4,0-4.3,1.9-4.3,4.5
			c0,2.6,1.9,4.5,4.3,4.5c1.2,0,2.1-0.5,2.7-1.3v1h1.9V85.8z M37.4,85.8c0-1.5,1-2.7,2.6-2.7c1.5,0,2.6,1.2,2.6,2.7
			c0,1.6-1,2.7-2.6,2.7C38.4,88.5,37.4,87.3,37.4,85.8 M117.2,88.8c0.1,0,0.2,0,0.3,0.1c0.1,0,0.2,0.1,0.3,0.2
			c0.1,0.1,0.1,0.2,0.2,0.3c0,0.1,0.1,0.2,0.1,0.3c0,0.1,0,0.2-0.1,0.3c0,0.1-0.1,0.2-0.2,0.3c-0.1,0.1-0.2,0.1-0.3,0.2
			c-0.1,0-0.2,0.1-0.3,0.1c-0.1,0-0.2,0-0.3-0.1c-0.1,0-0.2-0.1-0.3-0.2c-0.1-0.1-0.1-0.2-0.2-0.3c0-0.1-0.1-0.2-0.1-0.3
			c0-0.1,0-0.2,0.1-0.3c0-0.1,0.1-0.2,0.2-0.3c0.1-0.1,0.2-0.1,0.3-0.2C117,88.9,117.1,88.8,117.2,88.8 M117.2,90.3
			c0.1,0,0.2,0,0.3-0.1c0.1,0,0.1-0.1,0.2-0.1c0.1-0.1,0.1-0.1,0.1-0.2c0-0.1,0-0.2,0-0.3c0-0.1,0-0.2,0-0.3c0-0.1-0.1-0.1-0.1-0.2
			s-0.1-0.1-0.2-0.1c-0.1,0-0.2-0.1-0.3-0.1c-0.1,0-0.2,0-0.3,0.1c-0.1,0-0.1,0.1-0.2,0.1s-0.1,0.1-0.1,0.2c0,0.1,0,0.2,0,0.3
			c0,0.1,0,0.2,0,0.3c0,0.1,0.1,0.1,0.1,0.2c0.1,0.1,0.1,0.1,0.2,0.1C117,90.3,117.1,90.3,117.2,90.3 M117.2,89.3
			c0.1,0,0.2,0,0.2,0.1c0.1,0,0.1,0.1,0.1,0.2c0,0.1,0,0.1-0.1,0.2c0,0-0.1,0.1-0.2,0.1l0.3,0.3h-0.2l-0.2-0.3H117v0.3h-0.2v-0.8
			H117.2z M117,89.4v0.2h0.2c0,0,0.1,0,0.1,0c0,0,0,0,0-0.1c0,0,0-0.1,0-0.1c0,0-0.1,0-0.1,0H117z"/>
		<rect id="XMLID_32_" x="52.9" y="16.4" class="st2" width="28.2" height="50.6"/>
		<path id="XMLID_31_" class="st3" d="M54.7,41.7c0-10.3,4.8-19.4,12.3-25.3C61.5,12,54.6,9.5,47.1,9.5c-17.8,0-32.2,14.4-32.2,32.2
			c0,17.8,14.4,32.2,32.2,32.2c7.5,0,14.4-2.6,19.9-6.9C59.5,61.1,54.7,51.9,54.7,41.7"/>
		<path id="XMLID_26_" class="st4" d="M119.1,41.7c0,17.8-14.4,32.2-32.2,32.2c-7.5,0-14.4-2.6-19.9-6.9c7.5-5.9,12.3-15,12.3-25.3
			S74.5,22.2,67,16.3c5.5-4.3,12.4-6.9,19.9-6.9C104.7,9.5,119.1,23.9,119.1,41.7 M116,61.6v-1h0.4v-0.2h-1.1v0.2h0.4v1H116z
			 M118.1,61.6v-1.2h-0.3l-0.4,0.9l-0.4-0.9h-0.3v1.2h0.2v-0.9l0.4,0.8h0.2l0.4-0.8v0.9H118.1z"/>
	</g>
</g>
</svg>
